<svg xmlns="http://www.w3.org/2000/svg" xmlns:xlink="http://www.w3.org/1999/xlink" width="24"
    height="24" viewBox="0 0 24 24">
    <defs>
        <linearGradient id="linear-gradient" x1="0.2" x2="0.754" y2="0.87"
            gradientUnits="objectBoundingBox">
            <stop offset="0" stop-color="#f99f00" />
            <stop offset="1" stop-color="#db3069" />
        </linearGradient>
    </defs>
    <path id="Combined_Shape"
        d="M0,24V19.436A7.43,7.43,0,0,1,3.38,13.2V.965A.968.968,0,0,1,5.131.41L9.369,6.248a1.174,1.174,0,0,0,.951.482H13.7a1.176,1.176,0,0,0,.939-.464L18.775.451A1,1,0,0,1,20.62.923V13.2A7.431,7.431,0,0,1,24,19.436V24Z"
        transform="translate(0 0)" fill="url(#linear-gradient)" />
</svg>
