<svg id="Share_icon" xmlns="http://www.w3.org/2000/svg" width="30" height="30" viewBox="0 0 30 30">
    <path id="Shape" d="M19.95,10.5A1.05,1.05,0,0,0,18.9,11.55V17.5a1.4,1.4,0,0,1-1.4,1.4H3.5a1.4,1.4,0,0,1-1.4-1.4V3.5A1.4,1.4,0,0,1,3.5,2.1H9.45a1.05,1.05,0,1,0,0-2.1H2.8A2.8,2.8,0,0,0,0,2.8V18.2A2.8,2.8,0,0,0,2.8,21H18.2A2.8,2.8,0,0,0,21,18.2V11.55A1.05,1.05,0,0,0,19.95,10.5Z" transform="translate(4 5)" fill="#fff"/>
    <path id="Shape-2" d="M14.677,3.074,12.081.34a1.062,1.062,0,0,0-1.557,0,1.2,1.2,0,0,0,0,1.64L11.4,2.9H9.185A9.424,9.424,0,0,0,.016,11.5a2.969,2.969,0,0,0,.036.726c.177.408.463.778.91.778.953,0,1.045-.722,1.045-.722A7.365,7.365,0,0,1,9.185,5.064h4.454s.177-.014.267-.014a1.064,1.064,0,0,0,.771-.335A1.2,1.2,0,0,0,14.677,3.074Z" transform="translate(11 6)" fill="#fff"/>
    <rect id="Rectangle_10" width="30" height="30" fill="#fff" opacity="0"/>
</svg>
