<svg xmlns="http://www.w3.org/2000/svg" width="15" height="16" viewBox="0 0 15 16">
    <path id="Mask_Copy" d="M8.975,6.038H6.038a1.013,1.013,0,0,1-.828-.433L1.523.368A.838.838,0,0,0,0,.866V15.712A.286.286,0,0,0,.283,16H2.2a.837.837,0,0,0,.83-.844V11.632a3.716,3.716,0,0,1,3.39,2.228l.038.087a1.161,1.161,0,0,0,1.059.7h.032a1.061,1.061,0,0,0,.968-.636l.065-.147a3.716,3.716,0,0,1,3.39-2.228v3.524A.837.837,0,0,0,12.8,16h1.916A.286.286,0,0,0,15,15.712V.828A.868.868,0,0,0,13.395.4l-3.6,5.217a1.012,1.012,0,0,1-.816.417" fill="#fff" opacity="0.2"/>
</svg>
