<svg xmlns="http://www.w3.org/2000/svg" width="13.733" height="13.206" viewBox="0 0 13.733 13.206">
    <path id="Star_Copy_3" d="M9.931,13.989a2,2,0,0,0-1.861,0l-1.714.9a1.475,1.475,0,0,1-2.14-1.555l.327-1.909a2,2,0,0,0-.575-1.77L2.58,8.3A1.475,1.475,0,0,1,3.4,5.789l1.917-.279A2,2,0,0,0,6.82,4.417L7.677,2.68a1.475,1.475,0,0,1,2.645,0l.857,1.737a2,2,0,0,0,1.506,1.094l1.917.279A1.475,1.475,0,0,1,15.42,8.3L14.033,9.657a2,2,0,0,0-.575,1.77l.327,1.909a1.475,1.475,0,0,1-2.14,1.555Z" transform="translate(-2.133 -1.858)" fill="#d6182a"/>
</svg>
